<svg width="108" height="118" viewBox="0 0 108 118" fill="none" xmlns="http://www.w3.org/2000/svg">
<rect x="4" y="14" width="100" height="100" rx="50" fill="white" stroke="#7ACBE6" stroke-width="8"/>
<rect x="64" y="1" width="43" height="43" rx="21.5" fill="#FF0303" stroke="white" stroke-width="2"/>
<path d="M16.417 64.1631L17.4648 53.8828H28.0283V56.3042H19.688L19.0649 61.9258C20.075 61.3311 21.222 61.0337 22.5059 61.0337C24.3844 61.0337 25.876 61.6567 26.9805 62.9028C28.085 64.1395 28.6372 65.8151 28.6372 67.9297C28.6372 70.0537 28.0614 71.7293 26.9097 72.9565C25.7674 74.1743 24.1673 74.7832 22.1094 74.7832C20.2874 74.7832 18.8006 74.2782 17.6489 73.2681C16.4972 72.258 15.8411 70.8608 15.6807 69.0767H18.1587C18.3192 70.2567 18.7393 71.1488 19.4189 71.7529C20.0986 72.3477 20.9954 72.645 22.1094 72.645C23.3271 72.645 24.2806 72.2297 24.9697 71.3989C25.6683 70.5682 26.0176 69.4212 26.0176 67.958C26.0176 66.5798 25.64 65.4753 24.8848 64.6445C24.139 63.8044 23.1431 63.3843 21.897 63.3843C20.7547 63.3843 19.8579 63.6344 19.2065 64.1348L18.5127 64.7012L16.417 64.1631ZM44.4258 65.7065C44.4258 68.7746 43.9019 71.0544 42.854 72.5459C41.8062 74.0374 40.1683 74.7832 37.9404 74.7832C35.7409 74.7832 34.1125 74.0563 33.0552 72.6025C31.9979 71.1393 31.4504 68.9587 31.4126 66.0605V62.563C31.4126 59.5327 31.9365 57.2812 32.9844 55.8086C34.0322 54.3359 35.6748 53.5996 37.9121 53.5996C40.1305 53.5996 41.7637 54.3123 42.8115 55.7378C43.8594 57.1538 44.3975 59.3439 44.4258 62.3081V65.7065ZM41.8062 62.124C41.8062 59.9056 41.4946 58.2913 40.8716 57.2812C40.2485 56.2617 39.262 55.752 37.9121 55.752C36.5716 55.752 35.5946 56.257 34.981 57.2671C34.3674 58.2772 34.0511 59.8301 34.0322 61.9258V66.1172C34.0322 68.3451 34.3532 69.9924 34.9951 71.0591C35.6465 72.1164 36.6283 72.645 37.9404 72.645C39.2337 72.645 40.1919 72.1447 40.8149 71.144C41.4474 70.1434 41.7778 68.5669 41.8062 66.4146V62.124ZM48.5747 76.27H46.3232L54.9326 53.8828H57.1699L48.5747 76.27ZM60.9365 64.1631L61.9844 53.8828H72.5479V56.3042H64.2075L63.5845 61.9258C64.5946 61.3311 65.7415 61.0337 67.0254 61.0337C68.904 61.0337 70.3955 61.6567 71.5 62.9028C72.6045 64.1395 73.1567 65.8151 73.1567 67.9297C73.1567 70.0537 72.5809 71.7293 71.4292 72.9565C70.2869 74.1743 68.6868 74.7832 66.6289 74.7832C64.807 74.7832 63.3201 74.2782 62.1685 73.2681C61.0168 72.258 60.3607 70.8608 60.2002 69.0767H62.6782C62.8387 70.2567 63.2588 71.1488 63.9385 71.7529C64.6182 72.3477 65.515 72.645 66.6289 72.645C67.8467 72.645 68.8001 72.2297 69.4893 71.3989C70.1878 70.5682 70.5371 69.4212 70.5371 67.958C70.5371 66.5798 70.1595 65.4753 69.4043 64.6445C68.6585 63.8044 67.6626 63.3843 66.4165 63.3843C65.2743 63.3843 64.3774 63.6344 63.7261 64.1348L63.0322 64.7012L60.9365 64.1631ZM88.9453 65.7065C88.9453 68.7746 88.4214 71.0544 87.3735 72.5459C86.3257 74.0374 84.6878 74.7832 82.46 74.7832C80.2604 74.7832 78.632 74.0563 77.5747 72.6025C76.5174 71.1393 75.9699 68.9587 75.9321 66.0605V62.563C75.9321 59.5327 76.4561 57.2812 77.5039 55.8086C78.5518 54.3359 80.1943 53.5996 82.4316 53.5996C84.6501 53.5996 86.2832 54.3123 87.3311 55.7378C88.3789 57.1538 88.917 59.3439 88.9453 62.3081V65.7065ZM86.3257 62.124C86.3257 59.9056 86.0142 58.2913 85.3911 57.2812C84.7681 56.2617 83.7816 55.752 82.4316 55.752C81.0911 55.752 80.1141 56.257 79.5005 57.2671C78.8869 58.2772 78.5706 59.8301 78.5518 61.9258V66.1172C78.5518 68.3451 78.8727 69.9924 79.5146 71.0591C80.166 72.1164 81.1478 72.645 82.46 72.645C83.7533 72.645 84.7114 72.1447 85.3345 71.144C85.967 70.1434 86.2974 68.5669 86.3257 66.4146V62.124Z" fill="black"/>
<path d="M78.5059 21.085H83.6602V23.3066H78.5059V29.1465H76.1445V23.3066H70.9902V21.085H76.1445V15.6895H78.5059V21.085ZM94.0068 31H91.6455V15.3467L86.9102 17.0859V14.9531L93.6387 12.4268H94.0068V31Z" fill="white"/>
</svg>
