<svg width="1200" height="1200" viewBox="0 0 1200 1200" fill="none" xmlns="http://www.w3.org/2000/svg">
<path d="M1200 600C1200 931.371 931.371 1200 600 1200C268.629 1200 0 931.371 0 600C0 268.629 268.629 0 600 0C931.371 0 1200 268.629 1200 600ZM49.2446 600C49.2446 904.174 295.826 1150.76 600 1150.76C904.174 1150.76 1150.76 904.174 1150.76 600C1150.76 295.826 904.174 49.2446 600 49.2446C295.826 49.2446 49.2446 295.826 49.2446 600Z" fill="#E68F5B"/>
<path d="M1160 600C1160 909.279 909.279 1160 600 1160C290.721 1160 40 909.279 40 600C40 290.721 290.721 40 600 40C909.279 40 1160 290.721 1160 600ZM159.354 600C159.354 843.362 356.638 1040.65 600 1040.65C843.362 1040.65 1040.65 843.362 1040.65 600C1040.65 356.638 843.362 159.354 600 159.354C356.638 159.354 159.354 356.638 159.354 600Z" fill="#7ACBE6"/>
</svg>
